# Blender 4.1.1
# www.blender.org
mtllib arrow_Round.mtl
o Cone
v 0.000000 2.576446 -0.340319
v 0.066393 2.576446 -0.333780
v 0.130235 2.576446 -0.314414
v 0.189071 2.576446 -0.282965
v 0.240642 2.576446 -0.240642
v 0.282965 2.576446 -0.189071
v 0.314414 2.576446 -0.130234
v 0.333780 2.576446 -0.066393
v 0.340319 2.576446 0.000000
v 0.333780 2.576446 0.066393
v 0.314414 2.576446 0.130234
v 0.282965 2.576446 0.189071
v 0.240642 2.576446 0.240642
v 0.189071 2.576446 0.282965
v 0.130235 2.576446 0.314414
v 0.066393 2.576446 0.333780
v 0.000000 2.576446 0.340319
v -0.066393 2.576446 0.333780
v -0.130234 2.576446 0.314414
v -0.189071 2.576446 0.282965
v -0.240642 2.576446 0.240642
v -0.282965 2.576446 0.189071
v -0.314414 2.576446 0.130234
v -0.333780 2.576446 0.066393
v -0.340319 2.576446 0.000000
v -0.333780 2.576446 -0.066393
v -0.314414 2.576446 -0.130234
v -0.282965 2.576446 -0.189071
v -0.240642 2.576446 -0.240642
v -0.189071 2.576446 -0.282965
v -0.130234 2.576446 -0.314414
v -0.066393 2.576446 -0.333780
v 0.000000 4.576446 0.000000
v 0.000000 2.576446 -0.893751
v 0.174362 2.576446 -0.876577
v 0.342024 2.576446 -0.825718
v 0.496541 2.576446 -0.743126
v 0.631977 2.576446 -0.631977
v 0.743126 2.576446 -0.496541
v 0.825718 2.576446 -0.342024
v 0.876577 2.576446 -0.174362
v 0.893751 2.576446 -0.000000
v 0.876577 2.576446 0.174362
v 0.825718 2.576446 0.342024
v 0.743126 2.576446 0.496541
v 0.631977 2.576446 0.631977
v 0.496541 2.576446 0.743126
v 0.342024 2.576446 0.825718
v 0.174362 2.576446 0.876577
v 0.000000 2.576446 0.893751
v -0.174362 2.576446 0.876577
v -0.342024 2.576446 0.825718
v -0.496541 2.576446 0.743126
v -0.631977 2.576446 0.631977
v -0.743126 2.576446 0.496541
v -0.825718 2.576446 0.342024
v -0.876577 2.576446 0.174362
v -0.893751 2.576446 -0.000000
v -0.876577 2.576446 -0.174362
v -0.825718 2.576446 -0.342024
v -0.743126 2.576446 -0.496541
v -0.631977 2.576446 -0.631977
v -0.496541 2.576446 -0.743126
v -0.342024 2.576446 -0.825718
v -0.174362 2.576446 -0.876577
v 0.000000 0.000904 -0.340319
v 0.066393 0.000904 -0.333780
v 0.130235 0.000904 -0.314414
v 0.189071 0.000904 -0.282965
v 0.240642 0.000904 -0.240642
v 0.282965 0.000904 -0.189071
v 0.314414 0.000904 -0.130234
v 0.333780 0.000904 -0.066393
v 0.340319 0.000904 0.000000
v 0.333780 0.000904 0.066393
v 0.314414 0.000904 0.130234
v 0.282965 0.000904 0.189071
v 0.240642 0.000904 0.240642
v 0.189071 0.000904 0.282965
v 0.130235 0.000904 0.314414
v 0.066393 0.000904 0.333780
v 0.000000 0.000904 0.340319
v -0.066393 0.000904 0.333780
v -0.130234 0.000904 0.314414
v -0.189071 0.000904 0.282965
v -0.240642 0.000904 0.240642
v -0.282965 0.000904 0.189071
v -0.314413 0.000904 0.130234
v -0.333780 0.000904 0.066393
v -0.340319 0.000904 0.000000
v -0.333780 0.000904 -0.066393
v -0.314413 0.000904 -0.130234
v -0.282965 0.000904 -0.189071
v -0.240642 0.000904 -0.240642
v -0.189071 0.000904 -0.282965
v -0.130234 0.000904 -0.314414
v -0.066393 0.000904 -0.333780
vn 0.0896 0.4064 -0.9093
vn 0.2652 0.4064 -0.8744
vn 0.4307 0.4064 -0.8058
vn 0.5797 0.4064 -0.7063
vn 0.7063 0.4064 -0.5797
vn 0.8058 0.4064 -0.4307
vn 0.8744 0.4064 -0.2652
vn 0.9093 0.4064 -0.0896
vn 0.9093 0.4064 0.0896
vn 0.8744 0.4064 0.2652
vn 0.8058 0.4064 0.4307
vn 0.7063 0.4064 0.5797
vn 0.5797 0.4064 0.7063
vn 0.4307 0.4064 0.8058
vn 0.2652 0.4064 0.8744
vn 0.0896 0.4064 0.9093
vn -0.0896 0.4064 0.9093
vn -0.2652 0.4064 0.8744
vn -0.4307 0.4064 0.8058
vn -0.5797 0.4064 0.7063
vn -0.7063 0.4064 0.5797
vn -0.8058 0.4064 0.4307
vn -0.8744 0.4064 0.2652
vn -0.9093 0.4064 0.0896
vn -0.9093 0.4064 -0.0896
vn -0.8744 0.4064 -0.2652
vn -0.8058 0.4064 -0.4307
vn -0.7063 0.4064 -0.5797
vn -0.5797 0.4064 -0.7063
vn -0.4307 0.4064 -0.8058
vn -0.7730 -0.0000 0.6344
vn -0.2652 0.4064 -0.8744
vn -0.0896 0.4064 -0.9093
vn -0.0000 -1.0000 -0.0000
vn 0.9952 -0.0000 -0.0980
vn -0.8819 -0.0000 0.4714
vn 0.9952 -0.0000 0.0980
vn -0.9569 -0.0000 0.2903
vn 0.9569 -0.0000 0.2903
vn -0.9952 -0.0000 0.0980
vn 0.8819 -0.0000 0.4714
vn -0.9952 -0.0000 -0.0980
vn 0.7730 -0.0000 0.6344
vn -0.9569 -0.0000 -0.2903
vn 0.6344 -0.0000 0.7730
vn -0.8819 -0.0000 -0.4714
vn 0.4714 -0.0000 0.8819
vn 0.0980 -0.0000 -0.9952
vn -0.7730 -0.0000 -0.6344
vn 0.2903 -0.0000 0.9569
vn 0.2903 -0.0000 -0.9569
vn -0.6344 -0.0000 -0.7730
vn 0.0980 -0.0000 0.9952
vn 0.4714 -0.0000 -0.8819
vn -0.4714 -0.0000 -0.8819
vn -0.0980 -0.0000 0.9952
vn 0.6344 -0.0000 -0.7730
vn -0.2903 -0.0000 -0.9569
vn -0.2903 -0.0000 0.9569
vn 0.7730 -0.0000 -0.6344
vn -0.0980 -0.0000 -0.9952
vn -0.4714 -0.0000 0.8819
vn 0.8819 -0.0000 -0.4714
vn -0.6344 -0.0000 0.7730
vn 0.9569 -0.0000 -0.2903
vt 0.250000 0.490000
vt 0.250000 0.250000
vt 0.296822 0.485388
vt 0.341844 0.471731
vt 0.383337 0.449553
vt 0.419706 0.419706
vt 0.449553 0.383337
vt 0.471731 0.341844
vt 0.485388 0.296822
vt 0.490000 0.250000
vt 0.485388 0.203178
vt 0.471731 0.158156
vt 0.449553 0.116663
vt 0.419706 0.080294
vt 0.383337 0.050447
vt 0.341844 0.028269
vt 0.296822 0.014612
vt 0.250000 0.010000
vt 0.203178 0.014612
vt 0.158156 0.028269
vt 0.116663 0.050447
vt 0.080294 0.080294
vt 0.050447 0.116663
vt 0.028269 0.158156
vt 0.014612 0.203178
vt 0.010000 0.250000
vt 0.014612 0.296822
vt 0.028269 0.341844
vt 0.050447 0.383337
vt 0.080294 0.419706
vt 0.116663 0.449553
vt 0.158156 0.471731
vt 0.674303 0.174303
vt 0.660990 0.190525
vt 0.203178 0.485388
vt 0.770885 0.354995
vt 0.750000 0.357052
vt 0.750000 0.490000
vt 0.796822 0.485388
vt 0.790967 0.348903
vt 0.841844 0.471731
vt 0.809475 0.339010
vt 0.883337 0.449553
vt 0.825697 0.325697
vt 0.919706 0.419706
vt 0.839010 0.309475
vt 0.949553 0.383337
vt 0.848903 0.290967
vt 0.971731 0.341844
vt 0.854995 0.270885
vt 0.985388 0.296822
vt 0.857052 0.250000
vt 0.990000 0.250000
vt 0.854995 0.229115
vt 0.985388 0.203178
vt 0.848903 0.209033
vt 0.971731 0.158156
vt 0.839010 0.190525
vt 0.949553 0.116663
vt 0.825697 0.174303
vt 0.919706 0.080294
vt 0.809475 0.160990
vt 0.883337 0.050447
vt 0.790967 0.151097
vt 0.841844 0.028269
vt 0.770885 0.145005
vt 0.796822 0.014612
vt 0.750000 0.142948
vt 0.750000 0.010000
vt 0.729115 0.145005
vt 0.703178 0.014612
vt 0.709033 0.151097
vt 0.658156 0.028269
vt 0.690525 0.160990
vt 0.616663 0.050447
vt 0.580294 0.080294
vt 0.550447 0.116663
vt 0.651097 0.209033
vt 0.528269 0.158156
vt 0.645005 0.229115
vt 0.514612 0.203178
vt 0.642948 0.250000
vt 0.510000 0.250000
vt 0.645005 0.270885
vt 0.514612 0.296822
vt 0.651097 0.290967
vt 0.528269 0.341844
vt 0.660990 0.309475
vt 0.550447 0.383337
vt 0.674303 0.325697
vt 0.580294 0.419706
vt 0.690525 0.339010
vt 0.616663 0.449553
vt 0.709033 0.348903
vt 0.658156 0.471731
vt 0.729115 0.354995
vt 0.703178 0.485388
s 0
f 34/1/1 33/2/1 35/3/1
f 35/3/2 33/2/2 36/4/2
f 36/4/3 33/2/3 37/5/3
f 37/5/4 33/2/4 38/6/4
f 38/6/5 33/2/5 39/7/5
f 39/7/6 33/2/6 40/8/6
f 40/8/7 33/2/7 41/9/7
f 41/9/8 33/2/8 42/10/8
f 42/10/9 33/2/9 43/11/9
f 43/11/10 33/2/10 44/12/10
f 44/12/11 33/2/11 45/13/11
f 45/13/12 33/2/12 46/14/12
f 46/14/13 33/2/13 47/15/13
f 47/15/14 33/2/14 48/16/14
f 48/16/15 33/2/15 49/17/15
f 49/17/16 33/2/16 50/18/16
f 50/18/17 33/2/17 51/19/17
f 51/19/18 33/2/18 52/20/18
f 52/20/19 33/2/19 53/21/19
f 53/21/20 33/2/20 54/22/20
f 54/22/21 33/2/21 55/23/21
f 55/23/22 33/2/22 56/24/22
f 56/24/23 33/2/23 57/25/23
f 57/25/24 33/2/24 58/26/24
f 58/26/25 33/2/25 59/27/25
f 59/27/26 33/2/26 60/28/26
f 60/28/27 33/2/27 61/29/27
f 61/29/28 33/2/28 62/30/28
f 62/30/29 33/2/29 63/31/29
f 63/31/30 33/2/30 64/32/30
f 21/33/31 22/34/31 87/34/31 86/33/31
f 64/32/32 33/2/32 65/35/32
f 65/35/33 33/2/33 34/1/33
f 2/36/34 1/37/34 34/38/34 35/39/34
f 3/40/34 2/36/34 35/39/34 36/41/34
f 4/42/34 3/40/34 36/41/34 37/43/34
f 5/44/34 4/42/34 37/43/34 38/45/34
f 6/46/34 5/44/34 38/45/34 39/47/34
f 7/48/34 6/46/34 39/47/34 40/49/34
f 8/50/34 7/48/34 40/49/34 41/51/34
f 9/52/34 8/50/34 41/51/34 42/53/34
f 10/54/34 9/52/34 42/53/34 43/55/34
f 11/56/34 10/54/34 43/55/34 44/57/34
f 12/58/34 11/56/34 44/57/34 45/59/34
f 13/60/34 12/58/34 45/59/34 46/61/34
f 14/62/34 13/60/34 46/61/34 47/63/34
f 15/64/34 14/62/34 47/63/34 48/65/34
f 16/66/34 15/64/34 48/65/34 49/67/34
f 17/68/34 16/66/34 49/67/34 50/69/34
f 18/70/34 17/68/34 50/69/34 51/71/34
f 19/72/34 18/70/34 51/71/34 52/73/34
f 20/74/34 19/72/34 52/73/34 53/75/34
f 21/33/34 20/74/34 53/75/34 54/76/34
f 22/34/34 21/33/34 54/76/34 55/77/34
f 23/78/34 22/34/34 55/77/34 56/79/34
f 24/80/34 23/78/34 56/79/34 57/81/34
f 25/82/34 24/80/34 57/81/34 58/83/34
f 26/84/34 25/82/34 58/83/34 59/85/34
f 27/86/34 26/84/34 59/85/34 60/87/34
f 28/88/34 27/86/34 60/87/34 61/89/34
f 29/90/34 28/88/34 61/89/34 62/91/34
f 30/92/34 29/90/34 62/91/34 63/93/34
f 31/94/34 30/92/34 63/93/34 64/95/34
f 32/96/34 31/94/34 64/95/34 65/97/34
f 1/37/34 32/96/34 65/97/34 34/38/34
f 66/37/34 67/36/34 68/40/34 69/42/34 70/44/34 71/46/34 72/48/34 73/50/34 74/52/34 75/54/34 76/56/34 77/58/34 78/60/34 79/62/34 80/64/34 81/66/34 82/68/34 83/70/34 84/72/34 85/74/34 86/33/34 87/34/34 88/78/34 89/80/34 90/82/34 91/84/34 92/86/34 93/88/34 94/90/34 95/92/34 96/94/34 97/96/34
f 8/50/35 9/52/35 74/52/35 73/50/35
f 22/34/36 23/78/36 88/78/36 87/34/36
f 9/52/37 10/54/37 75/54/37 74/52/37
f 23/78/38 24/80/38 89/80/38 88/78/38
f 10/54/39 11/56/39 76/56/39 75/54/39
f 24/80/40 25/82/40 90/82/40 89/80/40
f 11/56/41 12/58/41 77/58/41 76/56/41
f 25/82/42 26/84/42 91/84/42 90/82/42
f 12/58/43 13/60/43 78/60/43 77/58/43
f 26/84/44 27/86/44 92/86/44 91/84/44
f 13/60/45 14/62/45 79/62/45 78/60/45
f 27/86/46 28/88/46 93/88/46 92/86/46
f 14/62/47 15/64/47 80/64/47 79/62/47
f 1/37/48 2/36/48 67/36/48 66/37/48
f 28/88/49 29/90/49 94/90/49 93/88/49
f 15/64/50 16/66/50 81/66/50 80/64/50
f 2/36/51 3/40/51 68/40/51 67/36/51
f 29/90/52 30/92/52 95/92/52 94/90/52
f 16/66/53 17/68/53 82/68/53 81/66/53
f 3/40/54 4/42/54 69/42/54 68/40/54
f 30/92/55 31/94/55 96/94/55 95/92/55
f 17/68/56 18/70/56 83/70/56 82/68/56
f 4/42/57 5/44/57 70/44/57 69/42/57
f 31/94/58 32/96/58 97/96/58 96/94/58
f 18/70/59 19/72/59 84/72/59 83/70/59
f 5/44/60 6/46/60 71/46/60 70/44/60
f 32/96/61 1/37/61 66/37/61 97/96/61
f 19/72/62 20/74/62 85/74/62 84/72/62
f 6/46/63 7/48/63 72/48/63 71/46/63
f 20/74/64 21/33/64 86/33/64 85/74/64
f 7/48/65 8/50/65 73/50/65 72/48/65
