# Blender 4.1.1
# www.blender.org
mtllib arrow_pointy.mtl
o pointer-arrow
v -0.043798 0.000000 0.043798
v -0.043798 0.000000 -0.043798
v 0.043798 0.000000 0.043798
v 0.043798 0.000000 -0.043798
v 0.043798 1.999996 -0.043798
v -0.889821 -0.186179 0.043798
v -0.043798 1.999996 0.043798
v -0.889821 -0.186179 -0.043798
v -0.043798 -0.186179 -0.889821
v -0.043798 1.999996 -0.043798
v 0.043798 -0.186179 -0.889821
v 0.889821 -0.186179 -0.043798
v 0.043798 1.999996 0.043798
v 0.889821 -0.186179 0.043798
v 0.043798 -0.186179 0.889821
v -0.043798 -0.186179 0.889821
v 0.000000 2.107501 0.000000
vn -0.0000 0.3773 -0.9261
vn -0.0000 0.3773 0.9261
vn -0.9261 0.3773 -0.0000
vn -0.0000 -1.0000 -0.0000
vn 0.9261 0.3773 -0.0000
vn -0.9326 0.3609 -0.0000
vn -0.0000 -0.0000 1.0000
vn -0.0000 -0.0000 -1.0000
vn 0.2149 -0.9766 -0.0000
vn -0.0000 0.3609 -0.9326
vn -1.0000 -0.0000 -0.0000
vn 1.0000 -0.0000 -0.0000
vn -0.0000 -0.9766 0.2149
vn 0.9326 0.3609 -0.0000
vn -0.2149 -0.9766 -0.0000
vn -0.0000 0.3609 0.9326
vn -0.0000 -0.9766 -0.2149
vt 0.625000 0.500000
vt 0.625000 0.250000
vt 0.625000 1.000000
vt 0.625000 0.750000
vt 0.625000 0.000000
vt 0.125000 0.500000
vt 0.375000 0.500000
vt 0.375000 0.750000
vt 0.125000 0.750000
vt 0.375000 0.000000
vt 0.375000 0.250000
vt 0.375000 1.000000
s 0
usemtl Material
f 5/1/1 10/2/1 17/1/1
f 7/3/2 13/4/2 17/3/2
f 10/2/3 7/5/3 17/2/3
f 2/6/4 4/7/4 3/8/4 1/9/4
f 13/4/5 5/1/5 17/4/5
f 6/10/6 7/5/6 10/2/6 8/11/6
f 7/5/7 6/10/7 1/10/7
f 2/11/8 8/11/8 10/2/8
f 1/10/9 6/10/9 8/11/9 2/11/9
f 9/11/10 10/2/10 5/1/10 11/7/10
f 10/2/11 9/11/11 2/11/11
f 4/7/12 11/7/12 5/1/12
f 2/11/13 9/11/13 11/7/13 4/7/13
f 12/7/14 5/1/14 13/4/14 14/8/14
f 5/1/8 12/7/8 4/7/8
f 3/8/7 14/8/7 13/4/7
f 4/7/15 12/7/15 14/8/15 3/8/15
f 15/8/16 13/4/16 7/3/16 16/12/16
f 13/4/12 15/8/12 3/8/12
f 1/12/11 16/12/11 7/3/11
f 3/8/17 15/8/17 16/12/17 1/12/17
